<svg width="173" height="179" viewBox="0 0 173 179" fill="none" xmlns="http://www.w3.org/2000/svg">
<path d="M117.658 34.0232C134.541 46.9101 154.313 55.2422 164.754 70.462C175.084 85.6818 176.195 108.012 165.31 121.676C154.424 135.341 131.542 140.451 114.103 150.894C96.7754 161.226 84.7791 176.89 71.45 178.778C58.1208 180.778 43.4587 168.891 29.7963 157.337C16.1339 145.784 3.58222 134.341 0.694228 120.899C-2.19376 107.456 4.58191 91.9031 9.02497 74.7946C13.5791 57.7973 15.8006 39.3557 26.0197 24.247C36.3498 9.13824 54.5663 -2.52661 70.7835 0.472924C86.8896 3.47246 100.774 21.0253 117.658 34.0232Z" fill="#DEF4EC"/>
<g clip-path="url(#clip0)">
<path d="M70 20C43.0183 20 21.0662 41.9677 21.0583 68.9705C20.8163 92.7675 32.9408 108.699 45.7767 125.564C46.8806 127.014 48.0156 128.507 49.1455 130.007C41.8997 133.148 37.6841 137.874 37.6841 143.066C37.6841 147.969 41.3118 152.411 47.8986 155.572C53.847 158.428 61.696 160 70 160C78.3038 160 86.1528 158.428 92.1011 155.573C98.688 152.411 102.315 147.969 102.315 143.066C102.315 137.876 98.0998 133.15 90.8537 130.008C91.9713 128.525 93.0937 127.049 94.1858 125.615C97.3219 121.496 100.284 117.606 103.099 113.585C103.965 112.348 103.664 110.643 102.427 109.776C101.19 108.911 99.485 109.211 98.6188 110.448C95.8666 114.38 92.9368 118.228 89.8349 122.302C88.5393 124.004 87.2006 125.762 85.8731 127.531L75.7868 139.222C73.9722 141.332 71.9685 142.45 70.0077 142.456C68.0324 142.45 66.025 141.331 64.2031 139.219C64.2031 139.219 51.4358 123.97 50.1282 122.252C37.3412 105.452 26.2981 90.9425 26.5267 69.0123C26.5267 69.0027 26.5267 68.9934 26.5267 68.9839C26.527 44.9895 46.0288 25.4688 70 25.4688C93.9709 25.4688 113.473 44.9895 113.473 68.9836C113.473 68.9932 113.473 69.0027 113.473 69.0126C113.549 76.2417 112.403 83.0183 109.966 89.7298C109.451 91.1493 110.184 92.718 111.604 93.2331C113.023 93.7488 114.592 93.0152 115.107 91.5961C117.769 84.2616 119.023 76.8608 118.941 68.9699C118.934 41.9669 96.9817 20 70 20V20ZM70.0077 147.924C73.6198 147.914 77.052 146.138 79.9302 142.791L87.1585 134.412C93.0986 136.633 96.8467 139.938 96.8467 143.066C96.8467 148.489 85.8211 154.532 69.9997 154.532C54.1784 154.532 43.1528 148.489 43.1528 143.066C43.1528 139.936 46.9 136.632 52.8391 134.413L60.0619 142.791C62.9505 146.139 66.3843 147.914 70.0077 147.924V147.924Z" fill="#535B6C"/>
<path d="M95.1889 66.7182L71.9344 43.4426C71.4217 42.9291 70.7258 42.6406 70.0004 42.6406C69.275 42.6406 68.5791 42.9291 68.0661 43.4421L44.8037 66.7176C43.7362 67.7857 43.7367 69.5171 44.8048 70.5849C45.8728 71.6524 47.6042 71.6521 48.6717 70.5838L50.4075 68.8472V83.2226C50.4075 85.7773 52.4887 87.8557 55.0469 87.8557H84.9536C87.5075 87.8557 89.5851 85.777 89.5851 83.2226V68.8466L91.3203 70.5832C91.8544 71.1178 92.5546 71.3852 93.2546 71.3852C93.9541 71.3852 94.6533 71.1183 95.187 70.5851C96.2553 69.5176 96.2562 67.7862 95.1889 66.7182V66.7182ZM84.1164 82.3867H67.0971V70.0921C67.0971 68.5822 65.8729 67.3577 64.3627 67.3577C62.8525 67.3577 61.6283 68.5822 61.6283 70.0921V82.3867H55.8763V63.3748L69.9999 49.2433L84.1164 63.3727V82.3867Z" fill="#535B6C"/>
<path d="M75.6375 74.3926C77.1474 74.3926 78.3718 73.1682 78.3718 71.6582V66.6357C78.3718 65.1258 77.1474 63.9014 75.6375 63.9014C74.1275 63.9014 72.9031 65.1258 72.9031 66.6357V71.6582C72.9031 73.1682 74.1275 74.3926 75.6375 74.3926Z" fill="#535B6C"/>
<path d="M69.9999 31.998C49.6231 31.998 33.0457 48.5897 33.0457 68.9832C33.0457 89.377 49.6231 105.969 69.9999 105.969C90.3765 105.969 106.954 89.377 106.954 68.9832C106.954 48.5897 90.3762 31.998 69.9999 31.998V31.998ZM69.9999 100.5C52.6388 100.5 38.5144 86.3612 38.5144 68.9829C38.5144 51.6046 52.6388 37.4668 69.9999 37.4668C87.361 37.4668 101.485 51.6049 101.485 68.9832C101.485 86.3615 87.361 100.5 69.9999 100.5Z" fill="#535B6C"/>
<path d="M105.539 99.6737L105.531 99.6814C104.463 100.749 104.467 102.477 105.535 103.544C106.068 104.077 106.767 104.343 107.466 104.343C108.168 104.343 108.871 104.076 109.406 103.541C110.474 102.473 110.474 100.741 109.406 99.6734C108.338 98.6062 106.607 98.6062 105.539 99.6737V99.6737Z" fill="#535B6C"/>
</g>
<defs>
<clipPath id="clip0">
<rect width="140" height="140" fill="white" transform="translate(0 20)"/>
</clipPath>
</defs>
</svg>
