<svg width="154" height="179" viewBox="0 0 154 179" fill="none" xmlns="http://www.w3.org/2000/svg">
<path d="M127.559 22.7304C138.435 36.4438 144.087 53.4672 148.566 72.2639C153.151 90.9424 156.563 111.394 151.445 131.255C146.326 151.115 132.784 170.385 115.616 176.651C98.3409 182.798 77.3339 175.823 56.2202 167.902C35.2132 159.864 14.0995 150.879 5.24886 133.974C-3.60182 117.069 -0.296144 92.2428 8.02136 73.3279C16.3389 54.5311 29.5615 41.4089 43.1041 28.2867C56.6467 15.0462 70.5092 1.68758 85.5447 0.150743C100.474 -1.38609 116.682 9.01711 127.559 22.7304Z" fill="#DEF4EC"/>
<path d="M145.938 147.78L139.701 111.262C139.028 107.328 136.237 104.167 132.416 103.015L115.592 97.9382C115.243 93.8256 113.557 89.9456 110.751 86.8744C108.506 84.4179 105.683 82.6293 102.571 81.6423C103.103 81.0513 103.597 80.4622 104.05 79.8861C108.051 74.7977 110.193 69.1919 110.738 65.3664H112.036C115.412 65.3664 118.158 62.6202 118.158 59.2442V56.1059C118.158 53.8529 116.891 51.8114 114.985 50.752V43.2052C114.985 42.0648 114.06 41.1403 112.92 41.1403C111.78 41.1403 110.855 42.0645 110.855 43.2052V51.6773C110.051 51.8169 109.092 52.0582 108.11 52.4715C108.01 52.5081 107.912 52.5506 107.819 52.6015C107.598 52.7026 107.376 52.8091 107.155 52.9292V36.2896C107.155 31.6925 103.415 27.9527 98.8178 27.9527H93.1186C91.1529 27.9527 89.2326 28.6376 87.7108 29.8818L87.1514 30.3389C86.1242 31.1789 84.8277 31.6415 83.5006 31.6415C82.1735 31.6415 80.8767 31.1789 79.8495 30.3389L79.2904 29.8818C77.7686 28.6378 75.8483 27.9527 73.8826 27.9527H68.1828C63.5857 27.9527 59.8459 31.6925 59.8459 36.2896V52.9292C59.6248 52.8091 59.4028 52.7026 59.1811 52.6015C59.0886 52.5506 58.9911 52.5081 58.8906 52.4715C57.9091 52.0582 56.9493 51.8169 56.1455 51.6773V30.2549C56.1455 23.569 61.585 18.1295 68.2709 18.1295H98.7294C105.416 18.1295 110.855 23.569 110.855 30.2549V33.5007C110.855 34.6411 111.779 35.5656 112.919 35.5656C114.06 35.5656 114.984 34.6414 114.984 33.5007V30.2549C114.984 21.2921 107.692 14 98.7294 14H68.2709C59.3078 14 52.016 21.2921 52.016 30.2549V50.7523C50.11 51.8117 48.8427 53.8529 48.8427 56.1061V59.2445C48.8427 62.6205 51.5891 65.3667 54.9649 65.3667H56.2628C56.8078 69.1921 58.9501 74.798 62.9509 79.8864C63.4034 80.4619 63.8969 81.0505 64.429 81.6409C57.2743 83.9134 52.0568 90.346 51.4093 97.9382L34.5846 103.015C30.763 104.167 27.9716 107.328 27.2997 111.262L24.7666 126.092C24.5747 127.216 25.3304 128.283 26.4542 128.475C27.5778 128.667 28.645 127.911 28.8372 126.787L31.3702 111.958C31.7767 109.577 33.4654 107.665 35.7773 106.968L51.3383 102.273V106.357C47.7714 107.014 44.7363 109.464 43.4863 112.859C43.1545 113.76 42.9482 114.703 42.8733 115.663L41.3694 134.966C41.2559 136.42 41.7591 137.868 42.7491 138.938C43.7391 140.008 45.1433 140.622 46.6015 140.622H49.1759C50.3163 140.622 51.2408 139.698 51.2408 138.558C51.2408 137.417 50.3163 136.493 49.1759 136.493H46.6015C46.2906 136.493 45.9915 136.362 45.7803 136.134C45.5694 135.906 45.4622 135.597 45.4865 135.288L46.9904 115.984C47.0358 115.402 47.1606 114.831 47.3616 114.285C48.2313 111.924 50.5798 110.325 53.2062 110.306L53.5463 110.304C53.5623 110.304 53.578 110.304 53.5937 110.304C56.1463 110.304 58.4059 111.751 59.359 114.001C59.6264 114.632 59.7889 115.299 59.8423 115.984L61.3468 135.288C61.3707 135.597 61.2636 135.906 61.0527 136.134C60.8417 136.362 60.5424 136.493 60.2314 136.493H57.6571C56.5167 136.493 55.5922 137.417 55.5922 138.558C55.5922 139.698 56.5167 140.622 57.6571 140.622H60.2314C61.6896 140.622 63.0941 140.009 64.0839 138.938C65.0742 137.868 65.5773 136.42 65.4639 134.966L63.9594 115.663C63.8713 114.533 63.6028 113.432 63.1613 112.39C61.8012 109.18 58.8928 106.948 55.4675 106.344V101.027L62.5654 98.8853C63.2112 100.245 64.4909 103.185 67.0259 109.521C69.5807 115.914 72.7562 124.108 75.8018 132.074C75.8235 132.141 75.8486 132.206 75.8767 132.27C77.909 137.588 79.8806 142.797 81.5668 147.29C81.8692 148.096 82.6394 148.629 83.5 148.629C84.3606 148.629 85.1309 148.096 85.4333 147.29C87.1192 142.797 89.0907 137.588 91.1234 132.27C91.1518 132.206 91.1765 132.14 91.1983 132.074C94.2416 124.112 97.4155 115.923 99.9692 109.532C102.507 103.188 103.788 100.247 104.434 98.8853L111.532 101.027V113.223C106.614 114.178 102.889 118.515 102.889 123.709C102.889 129.6 107.682 134.393 113.573 134.393C119.464 134.393 124.257 129.6 124.257 123.709C124.257 118.532 120.556 114.206 115.662 113.232V102.273L131.223 106.968C133.535 107.666 135.223 109.577 135.63 111.958L141.868 148.475C141.971 149.081 141.81 149.673 141.414 150.143C141.018 150.612 140.461 150.871 139.847 150.871H27.1532C26.5388 150.871 25.9825 150.612 25.5862 150.143C25.1902 149.673 25.0288 149.081 25.1324 148.475L27.1909 136.424C27.3829 135.3 26.6272 134.233 25.5033 134.041C24.3797 133.848 23.3126 134.605 23.1204 135.729L21.0618 147.78C20.7547 149.579 21.2535 151.411 22.4299 152.806C23.607 154.2 25.3284 155 27.1532 155H139.847C141.672 155 143.393 154.2 144.57 152.805C145.747 151.411 146.245 149.579 145.938 147.78ZM110.88 55.8839C111.98 55.6096 112.863 55.6146 112.873 55.6148C113.229 55.6195 113.575 55.5363 113.882 55.3752C113.974 55.6041 114.028 55.85 114.028 56.1061V59.2445C114.028 60.3433 113.134 61.2372 112.035 61.2372H110.88V55.8839ZM56.1204 61.2372H54.9646C53.8658 61.2372 52.9719 60.3433 52.9719 59.2445V56.1061C52.9719 55.85 53.0264 55.6041 53.1181 55.3755C53.4252 55.5366 53.7711 55.6198 54.1271 55.6148C54.1428 55.6176 55.0235 55.6126 56.1204 55.885V61.2372ZM60.2499 63.5524V58.1278C60.8756 58.3153 61.5599 58.2897 62.1917 58.0261C63.2753 57.574 63.9754 56.5239 63.9754 55.3505V36.2896C63.9754 33.9697 65.8629 32.0821 68.1828 32.0821H73.882C74.8977 32.0821 75.8899 32.436 76.6761 33.0788L77.2352 33.5359C78.9979 34.9773 81.2228 35.7707 83.5 35.7707C85.7772 35.7707 88.0021 34.9771 89.7649 33.5359L90.3239 33.0788C91.1099 32.436 92.1024 32.0821 93.118 32.0821H98.8173C101.137 32.0821 103.025 33.9697 103.025 36.2896V55.3507C103.025 56.5239 103.725 57.5742 104.808 58.0264C105.17 58.1773 105.549 58.2506 105.925 58.2506C106.205 58.2506 106.483 58.2096 106.75 58.1297V63.5524C106.75 66.5671 104.666 72.4214 100.803 77.3338C99.5239 78.9611 97.8793 80.7092 95.8543 82.2371C95.7902 82.2801 95.7287 82.3266 95.6701 82.3762C92.5331 84.6955 88.4995 86.4723 83.5 86.4723C78.5006 86.4723 74.4669 84.6955 71.3297 82.3759C71.271 82.3266 71.2099 82.2801 71.146 82.2374C69.1211 80.7092 67.4764 78.9611 66.1967 77.3338C62.3343 72.4216 60.2499 66.5671 60.2499 63.5524ZM97.0272 96.9119L83.5 107.023L69.9728 96.9119C71.3143 95.2069 72.0658 93.0184 72.0658 91.0653V87.7369C75.2468 89.4477 79.0426 90.6021 83.5 90.6021C87.9575 90.6021 91.7535 89.4477 94.9342 87.7369V91.0653C94.9342 93.0184 95.6858 95.2069 97.0272 96.9119ZM66.5269 94.6071C65.4242 94.1871 64.2018 94.1183 63.0454 94.432C62.9947 94.4438 62.9451 94.4573 62.897 94.4716L55.7635 96.6241C56.97 90.6916 61.7871 85.9698 67.9363 85.0552V91.0653C67.9363 92.3607 67.358 93.7 66.5269 94.6071ZM72.1308 111.182C72.1269 111.173 72.1231 111.163 72.1195 111.154C72.0149 110.889 71.9116 110.628 71.8091 110.37C71.7907 110.323 71.7722 110.277 71.7538 110.23C71.6536 109.978 71.5541 109.727 71.4561 109.481C71.4492 109.463 71.4423 109.446 71.4354 109.429C71.1295 108.659 70.8345 107.922 70.5509 107.215C70.5302 107.164 70.5096 107.111 70.4889 107.061C70.4074 106.858 70.3273 106.658 70.2477 106.461C70.2185 106.389 70.1896 106.317 70.1607 106.245C70.0835 106.054 70.007 105.864 69.9315 105.678C69.9089 105.623 69.8869 105.569 69.8646 105.513C69.7277 105.176 69.5939 104.847 69.4634 104.526C69.4281 104.439 69.392 104.351 69.3571 104.265C69.3058 104.14 69.256 104.018 69.2059 103.896C69.1519 103.764 69.0979 103.632 69.0451 103.504C69.0252 103.455 69.0046 103.404 68.9847 103.357C68.9688 103.318 68.9542 103.282 68.9385 103.244C68.7 102.665 68.4733 102.119 68.2583 101.605C68.2566 101.601 68.2547 101.597 68.253 101.593C68.1385 101.319 68.0264 101.052 67.9187 100.798C67.8628 100.666 67.8077 100.536 67.7537 100.409L79.3876 109.104L74.5264 111.169C74.5179 111.173 74.5091 111.176 74.5005 111.18L72.4709 112.042C72.3558 111.751 72.2432 111.466 72.1308 111.182ZM77.0575 123.825C76.6497 122.767 76.2388 121.702 75.8271 120.639C75.1832 118.976 74.5683 117.395 73.9798 115.888L74.7503 115.561L77.8986 119.22L77.0575 123.825ZM83.54 140.607C83.4808 140.484 83.4103 140.368 83.3287 140.26C82.3957 137.794 81.2115 134.673 79.9009 131.24L81.8287 120.686H85.1714L87.0991 131.24C85.7257 134.837 84.4923 138.089 83.54 140.607ZM85.9458 116.557H81.0543L78.7396 113.866L83.5 111.844L88.2604 113.866L85.9458 116.557ZM91.173 120.639C90.7613 121.702 90.3504 122.767 89.9425 123.825L89.1015 119.22L92.2497 115.56L93.0203 115.888C92.4318 117.394 91.8168 118.976 91.173 120.639ZM99.0816 100.798C98.9795 101.039 98.8732 101.292 98.7649 101.55C98.7509 101.584 98.7366 101.618 98.7225 101.652C98.6154 101.908 98.5063 102.169 98.3934 102.442C98.386 102.46 98.3783 102.479 98.3708 102.497C98.2734 102.732 98.1734 102.974 98.0718 103.221C98.0528 103.267 98.0349 103.31 98.0159 103.357C97.9933 103.412 97.9691 103.471 97.9462 103.526C97.901 103.637 97.855 103.749 97.8088 103.861C97.752 104 97.6956 104.138 97.6375 104.28C97.619 104.325 97.6 104.372 97.5813 104.417C97.4375 104.77 97.2899 105.133 97.139 105.505C97.1153 105.564 97.0919 105.621 97.0683 105.68C96.9936 105.865 96.9176 106.053 96.8413 106.242C96.8116 106.316 96.7816 106.39 96.7515 106.465C96.6728 106.66 96.5932 106.858 96.5128 107.058C96.4902 107.114 96.4673 107.171 96.4448 107.227C96.1647 107.925 95.8742 108.652 95.5726 109.41C95.5627 109.435 95.5528 109.459 95.5429 109.485C95.4454 109.73 95.3468 109.979 95.2471 110.229C95.2286 110.276 95.2099 110.323 95.1912 110.37C95.0882 110.63 94.9844 110.892 94.8792 111.158C94.8772 111.163 94.8753 111.168 94.8734 111.173C94.7599 111.46 94.6459 111.748 94.5297 112.043L92.4981 111.18C92.491 111.177 92.4838 111.174 92.4769 111.171L87.613 109.104L99.2469 100.409C99.1923 100.536 99.1373 100.665 99.0816 100.798ZM104.103 94.4719C104.103 94.4719 104.102 94.4716 104.102 94.4716C104.1 94.4711 104.098 94.4708 104.097 94.47C102.899 94.1106 101.621 94.1701 100.473 94.6071C99.6421 93.7 99.064 92.3607 99.064 91.0653V85.0522C105.252 85.9643 110.054 90.6418 111.245 96.6265L104.103 94.4719ZM120.127 123.709C120.127 127.323 117.187 130.263 113.573 130.263C109.959 130.263 107.019 127.323 107.019 123.709C107.019 120.095 109.959 117.154 113.573 117.154C117.187 117.154 120.127 120.095 120.127 123.709Z" fill="#535B6C"/>
</svg>
