<svg width="255" height="179" viewBox="0 0 255 179" fill="none" xmlns="http://www.w3.org/2000/svg">
<path d="M212.728 28.6431C234.173 37.589 250.191 64.8213 245.024 86.9229C239.857 109.025 213.504 125.732 192.059 140.993C170.615 156.254 154.209 169.936 134.444 173.225C114.679 176.513 91.814 169.409 71.0157 154.149C50.3465 138.888 31.7443 115.602 32.0027 92.4484C32.261 69.2943 51.38 46.5349 72.0491 37.7205C92.8475 28.7746 115.196 33.9054 139.87 31.6689C164.544 29.4324 191.284 19.8287 212.728 28.6431Z" fill="#DEF4EC"/>
<g clip-path="url(#clip0)">
<path d="M111.825 62.9121C110.208 62.9121 108.895 64.2246 108.895 65.8418C108.895 67.459 110.208 68.7715 111.825 68.7715C113.442 68.7715 114.754 67.459 114.754 65.8418C114.754 64.2246 113.442 62.9121 111.825 62.9121Z" fill="#535B6C"/>
<path d="M138.19 117.695H129.402V108.906C129.402 107.288 128.09 105.977 126.472 105.977C124.854 105.977 123.543 107.288 123.543 108.906V117.695H114.754C113.137 117.695 111.825 119.007 111.825 120.624C111.825 122.242 113.137 123.554 114.754 123.554H123.543V132.342C123.543 133.96 124.855 135.272 126.472 135.272C128.09 135.272 129.402 133.96 129.402 132.342V123.554H138.19C139.808 123.554 141.12 122.242 141.12 120.624C141.12 119.006 139.808 117.695 138.19 117.695Z" fill="#535B6C"/>
<path d="M217.259 120.331C210.783 109.115 196.464 105.276 185.245 111.753L173.345 118.624V93.1833C173.345 90.0383 172.305 86.9173 170.416 84.3948L155.769 64.8652V56.549C159.178 55.3396 161.628 52.0836 161.628 48.2642V34.7885C161.627 29.9425 157.685 26 152.839 26H100.107C95.2608 26 91.318 29.9425 91.318 34.7885V48.2645C91.318 52.0833 93.7675 55.3399 97.1771 56.5493V64.8655L82.5284 84.3963C80.6399 86.9176 79.5999 90.0383 79.5999 93.1833V149.92C79.5999 157.996 86.1708 164.567 94.2474 164.567H141.328C147.897 175.578 162.061 179.263 173.163 172.852L208.682 152.345C219.801 145.924 223.768 131.609 217.259 120.331ZM97.1771 34.7885C97.1771 33.173 98.4914 31.8588 100.106 31.8588H152.838C154.454 31.8588 155.768 33.173 155.768 34.7885V48.2645C155.768 49.8799 154.454 51.1938 152.838 51.1938H100.107C98.4914 51.1938 97.1774 49.8796 97.1774 48.2645V34.7885H97.1771ZM87.217 87.9099L102.45 67.5995C102.831 67.0927 103.036 66.4757 103.036 65.8417V57.0532H149.909V62.9123H123.543C121.925 62.9123 120.613 64.2242 120.613 65.842C120.613 67.4598 121.925 68.7717 123.543 68.7717H151.374L165.727 87.909C166.665 89.1614 167.248 90.66 167.424 92.208H85.5213C85.6971 90.6597 86.2798 89.1611 87.217 87.9099ZM94.2477 158.708C89.4017 158.708 85.4592 154.766 85.4592 149.92V146.961H138.684C137.755 150.759 137.761 154.816 138.825 158.708H94.2477V158.708ZM140.982 141.131H85.4589V98.0665H167.486V122.006L149.727 132.26C146.024 134.399 143.031 137.444 140.982 141.131ZM170.234 167.778C161.827 172.633 151.084 169.762 146.226 161.348C141.344 152.854 144.303 142.159 152.657 137.334L168.558 128.153L186.136 158.597L170.234 167.778ZM205.752 147.271L191.21 155.667L173.632 125.223L188.175 116.828C196.588 111.971 207.327 114.847 212.185 123.26C217.064 131.716 214.097 142.452 205.752 147.271Z" fill="#535B6C"/>
</g>
<defs>
<clipPath id="clip0">
<rect width="150" height="150" fill="white" transform="translate(75 26)"/>
</clipPath>
</defs>
</svg>
